<svg width="24" height="24" viewBox="0 0 24 24" fill="none" xmlns="http://www.w3.org/2000/svg">
<path d="M17.2931 5.29303C17.6836 4.90251 18.3166 4.90251 18.7072 5.29303C19.0976 5.68356 19.0977 6.31659 18.7072 6.70709L13.4142 12.0001L18.7072 17.293C19.0976 17.6836 19.0977 18.3166 18.7072 18.7071C18.3167 19.0976 17.6836 19.0975 17.2931 18.7071L12.0001 13.4141L6.70715 18.7071C6.31665 19.0976 5.68362 19.0975 5.29309 18.7071C4.90257 18.3166 4.90257 17.6836 5.29309 17.293L10.5861 12.0001L5.29309 6.70709C4.90257 6.31657 4.90257 5.68355 5.29309 5.29303C5.68362 4.90251 6.31663 4.90251 6.70715 5.29303L12.0001 10.586L17.2931 5.29303Z" fill="#757575"/>
</svg>
