<svg width="32" height="32" viewBox="0 0 32 32" fill="none" xmlns="http://www.w3.org/2000/svg">
<path d="M0 12C0 5.37258 5.37258 0 12 0C18.6274 0 24 5.37258 24 12C24 18.6274 18.6274 24 12 24C5.37258 24 0 18.6274 0 12Z" fill="#EEEEEE"/>
<path d="M14.0007 13.3333C14.8844 13.3335 15.7321 13.685 16.3571 14.3099C16.982 14.935 17.3337 15.7834 17.3337 16.6673V18.0003C17.3335 18.3682 17.0346 18.6671 16.6667 18.6673H7.33366C6.96558 18.6673 6.66685 18.3683 6.66667 18.0003V16.6673C6.66667 15.7832 7.01811 14.935 7.64323 14.3099C8.26836 13.6848 9.1166 13.3333 10.0007 13.3333H14.0007ZM15.9997 17.3333H16.0007V16.6673C16.0007 16.6606 15.9997 16.6535 15.9997 16.6468V17.3333ZM12.0007 5.33331C13.8413 5.33366 15.3337 6.82657 15.3337 8.6673C15.3333 10.5077 13.8411 12 12.0007 12.0003C10.1599 12.0003 8.66702 10.5079 8.66667 8.6673C8.66667 6.82635 10.1597 5.33331 12.0007 5.33331Z" fill="#757575"/>
<path d="M8 20C8 13.3726 13.3726 8 20 8C26.6274 8 32 13.3726 32 20C32 26.6274 26.6274 32 20 32C13.3726 32 8 26.6274 8 20Z" fill="#EEEEEE"/>
<path d="M22.0007 21.3333C22.8844 21.3335 23.7321 21.685 24.3571 22.3099C24.982 22.935 25.3337 23.7834 25.3337 24.6673V26.0003C25.3335 26.3682 25.0346 26.6671 24.6667 26.6673H15.3337C14.9656 26.6673 14.6668 26.3683 14.6667 26.0003V24.6673C14.6667 23.7832 15.0181 22.935 15.6432 22.3099C16.2684 21.6848 17.1166 21.3333 18.0007 21.3333H22.0007ZM23.9997 25.3333H24.0007V24.6673C24.0007 24.6606 23.9997 24.6535 23.9997 24.6468V25.3333ZM20.0007 13.3333C21.8413 13.3337 23.3337 14.8266 23.3337 16.6673C23.3333 18.5077 21.8411 20 20.0007 20.0003C18.1599 20.0003 16.667 18.5079 16.6667 16.6673C16.6667 14.8263 18.1597 13.3333 20.0007 13.3333Z" fill="#757575"/>
</svg>
