<svg width="22" height="22" viewBox="0 0 22 22" fill="none" xmlns="http://www.w3.org/2000/svg">
<path d="M11 0C17.0751 0 22 4.92487 22 11C22 17.0751 17.0751 22 11 22C4.92487 22 0 17.0751 0 11C0 4.92487 4.92487 0 11 0ZM14.707 8.29297C14.3165 7.90244 13.6835 7.90244 13.293 8.29297L10 11.5859L8.70703 10.293C8.31651 9.90244 7.68349 9.90244 7.29297 10.293C6.90244 10.6835 6.90244 11.3165 7.29297 11.707L9.29297 13.707C9.68349 14.0976 10.3165 14.0976 10.707 13.707L14.707 9.70703C15.0976 9.31651 15.0976 8.68349 14.707 8.29297Z" fill="#00B505"/>
</svg>
