<svg width="22" height="22" viewBox="0 0 22 22" fill="none" xmlns="http://www.w3.org/2000/svg">
<path d="M11 0C17.0751 0 22 4.92487 22 11C22 17.0751 17.0751 22 11 22C4.92487 22 0 17.0751 0 11C0 4.92487 4.92487 0 11 0ZM14.707 7.29297C14.3165 6.90244 13.6835 6.90244 13.293 7.29297L11 9.58594L8.70703 7.29297C8.31651 6.90244 7.68349 6.90244 7.29297 7.29297C6.90244 7.68349 6.90244 8.31651 7.29297 8.70703L9.58594 11L7.29297 13.293C6.90244 13.6835 6.90244 14.3165 7.29297 14.707C7.68349 15.0976 8.31651 15.0976 8.70703 14.707L11 12.4141L13.293 14.707C13.6835 15.0976 14.3165 15.0976 14.707 14.707C15.0976 14.3165 15.0976 13.6835 14.707 13.293L12.4141 11L14.707 8.70703C15.0976 8.31651 15.0976 7.68349 14.707 7.29297Z" fill="black"/>
</svg>
