<svg width="14" height="14" viewBox="0 0 14 14" fill="none" xmlns="http://www.w3.org/2000/svg">
<path d="M12.2928 0.292832C12.6834 -0.0976921 13.3164 -0.0976921 13.7069 0.292832C14.0973 0.683363 14.0974 1.3164 13.7069 1.70689L8.41393 6.99986L13.7069 12.2928C14.0973 12.6834 14.0974 13.3164 13.7069 13.7069C13.3164 14.0974 12.6834 14.0973 12.2928 13.7069L6.99986 8.41393L1.70689 13.7069C1.3164 14.0974 0.683363 14.0973 0.292832 13.7069C-0.0976921 13.3164 -0.0976921 12.6834 0.292832 12.2928L5.5858 6.99986L0.292832 1.70689C-0.0976921 1.31637 -0.0976921 0.683356 0.292832 0.292832C0.683356 -0.0976921 1.31637 -0.0976921 1.70689 0.292832L6.99986 5.5858L12.2928 0.292832Z" fill="black"/>
</svg>
